<svg id="Capa_1" enable-background="new 0 0 512 512" height="512" viewBox="0 0 512 512" width="512" xmlns="http://www.w3.org/2000/svg"><g><circle cx="382" cy="501.999" r="10"/><path d="m502 132h-110v-50c0-5.522-4.478-10-10-10h-116v-62c0-5.522-4.478-10-10-10h-246c-5.523 0-10 4.478-10 10v372c0 5.522 4.477 10 10 10h116v50c0 5.522 4.477 10 10 10h116v50c0 5.522 4.478 10 10 10h75c5.522 0 10-4.478 10-10s-4.478-10-10-10h-65v-92.143c3.981 5.077 8.052 11.754 11.461 17.347 10.427 17.108 21.208 34.796 38.539 34.796s28.112-17.688 38.539-34.796c6.483-10.637 15.362-25.204 21.461-25.204s14.978 14.567 21.461 25.204c10.427 17.108 21.208 34.796 38.539 34.796s28.112-17.688 38.539-34.796c3.409-5.593 7.48-12.27 11.461-17.347v92.143h-65c-5.522 0-10 4.478-10 10s4.478 10 10 10h75c5.522 0 10-4.478 10-10v-360c0-5.522-4.478-10-10-10zm-250 120h-106v-70h106zm-106 20h106v70h-106zm126-52.143c3.981 5.077 8.052 11.754 11.461 17.347 10.427 17.108 21.208 34.796 38.539 34.796s28.112-17.688 38.539-34.796c6.483-10.637 15.362-25.204 21.461-25.204s14.978 14.567 21.461 25.204c10.427 17.108 21.208 34.796 38.539 34.796s28.112-17.688 38.539-34.796c3.409-5.593 7.48-12.27 11.461-17.347v64.276c-11.789 5.196-20.277 19.107-28.539 32.662-6.483 10.638-15.362 25.205-21.461 25.205s-14.978-14.567-21.461-25.204c-10.427-17.108-21.208-34.796-38.539-34.796s-28.112 17.688-38.539 34.796c-6.483 10.637-15.362 25.204-21.461 25.204s-14.978-14.567-21.461-25.204c-8.262-13.555-16.75-27.466-28.539-32.662zm220-25.724c-11.789 5.196-20.277 19.107-28.539 32.662-6.483 10.638-15.362 25.205-21.461 25.205s-14.978-14.567-21.461-25.204c-10.427-17.108-21.208-34.796-38.539-34.796s-28.112 17.688-38.539 34.796c-6.483 10.637-15.362 25.204-21.461 25.204s-14.978-14.567-21.461-25.204c-8.262-13.555-16.75-27.466-28.539-32.662v-42.134h220zm-120-62.133h-110c-5.522 0-10 4.478-10 10v20h-106v-70h226zm-352 240v-352h226v52h-110c-5.523 0-10 4.478-10 10v290zm126 60v-70h106v70zm317.461-25.204c-6.483 10.637-15.362 25.204-21.461 25.204s-14.978-14.567-21.461-25.204c-10.427-17.108-21.208-34.796-38.539-34.796s-28.112 17.688-38.539 34.796c-6.483 10.637-15.362 25.204-21.461 25.204s-14.978-14.567-21.461-25.204c-8.262-13.555-16.75-27.466-28.539-32.662v-64.276c3.981 5.077 8.052 11.754 11.461 17.347 10.427 17.107 21.208 34.795 38.539 34.795s28.112-17.688 38.539-34.796c6.483-10.637 15.362-25.204 21.461-25.204s14.978 14.567 21.461 25.204c10.427 17.108 21.208 34.796 38.539 34.796s28.112-17.688 38.539-34.796c3.409-5.593 7.48-12.27 11.461-17.347v64.276c-11.789 5.197-20.277 19.107-28.539 32.663z"/></g></svg>