<svg id="Capa_1" enable-background="new 0 0 512 512" height="512" viewBox="0 0 512 512" width="512" xmlns="http://www.w3.org/2000/svg"><g><g><g><path d="m367.927 225.493h-223.854v-215.94c0-4.371 3.544-7.915 7.915-7.915h208.018c4.375 0 7.922 3.547 7.922 7.922v215.933z" fill="#fccd7f"/><path d="m367.924 9.557v215.94h-20.217v-215.94c0-4.367-3.548-7.915-7.915-7.915h20.217c4.367 0 7.915 3.548 7.915 7.915z" fill="#fbc56d"/><path d="m256 1.638h-26.724v59.445c0 3.52 3.723 5.795 6.855 4.189l17.722-9.084c1.348-.691 2.947-.691 4.295 0l17.722 9.084c3.133 1.606 6.855-.669 6.855-4.189v-59.445z" fill="#d8aa5e"/><path d="m282.729 1.642v59.439c0 3.518-3.73 5.802-6.864 4.195l-13.353-6.844v-56.79z" fill="#c99c56"/><path d="m293.707 187.854h-75.414c-2.505 0-4.536-2.031-4.536-4.536v-32.361c0-2.505 2.031-4.536 4.536-4.536h75.414c2.505 0 4.536 2.031 4.536 4.536v32.361c0 2.505-2.031 4.536-4.536 4.536z" fill="#d8aa5e"/><path d="m298.245 150.956v32.358c0 2.507-2.032 4.539-4.539 4.539h-20.611c2.507 0 4.539-2.032 4.539-4.539v-32.358c0-2.507-2.032-4.539-4.539-4.539h20.611c2.508 0 4.539 2.032 4.539 4.539z" fill="#c99c56"/></g><g><path d="m479.855 447.066h-223.855v-223.855h215.933c4.375 0 7.922 3.547 7.922 7.922z" fill="#fccd7f"/><path d="m479.851 231.13v215.94h-20.217v-215.94c0-4.367-3.548-7.915-7.915-7.915h20.217c4.367 0 7.915 3.548 7.915 7.915z" fill="#fbc56d"/><path d="m367.927 223.211h-26.724v59.445c0 3.52 3.723 5.795 6.855 4.189l17.722-9.084c1.348-.691 2.947-.691 4.295 0l17.722 9.084c3.133 1.606 6.855-.669 6.855-4.189v-59.445z" fill="#d8aa5e"/><path d="m394.656 223.215v59.439c0 3.518-3.73 5.802-6.864 4.195l-13.353-6.844v-56.79z" fill="#c99c56"/><path d="m405.634 409.426h-75.414c-2.505 0-4.536-2.031-4.536-4.536v-32.361c0-2.505 2.031-4.536 4.536-4.536h75.414c2.505 0 4.536 2.031 4.536 4.536v32.361c.001 2.505-2.03 4.536-4.536 4.536z" fill="#d8aa5e"/><path d="m410.173 372.529v32.358c0 2.507-2.032 4.539-4.539 4.539h-20.611c2.507 0 4.539-2.032 4.539-4.539v-32.358c0-2.507-2.032-4.539-4.539-4.539h20.611c2.507 0 4.539 2.032 4.539 4.539z" fill="#c99c56"/></g><g><path d="m260.526 447.066h-228.381v-215.933c0-4.375 3.547-7.922 7.922-7.922h220.458v223.855z" fill="#fccd7f"/><path d="m255.997 223.215v223.855h-20.217v-215.94c0-4.367-3.548-7.915-7.915-7.915z" fill="#fbc56d"/><path d="m144.073 223.211h-26.725v59.445c0 3.52 3.723 5.795 6.855 4.189l17.722-9.084c1.348-.691 2.947-.691 4.295 0l17.722 9.084c3.133 1.606 6.855-.669 6.855-4.189v-59.445z" fill="#d8aa5e"/><path d="m170.801 223.215v59.439c0 3.518-3.73 5.802-6.864 4.195l-13.353-6.844v-56.79z" fill="#c99c56"/><path d="m181.78 409.426h-75.414c-2.505 0-4.536-2.031-4.536-4.536v-32.361c0-2.505 2.031-4.536 4.536-4.536h75.414c2.505 0 4.536 2.031 4.536 4.536v32.361c0 2.505-2.031 4.536-4.536 4.536z" fill="#d8aa5e"/><path d="m186.318 372.529v32.358c0 2.507-2.032 4.539-4.539 4.539h-20.611c2.507 0 4.539-2.032 4.539-4.539v-32.358c0-2.507-2.032-4.539-4.539-4.539h20.611c2.507 0 4.539 2.032 4.539 4.539z" fill="#c99c56"/></g></g><g fill="#8d9ca8"><path d="m476.313 510.362h-22.457c-3.321 0-6.013-2.692-6.013-6.013v-34.046h34.482v34.046c.001 3.321-2.691 6.013-6.012 6.013z"/><path d="m58.144 510.362h-22.457c-3.321 0-6.013-2.692-6.013-6.013v-34.046h34.482v34.046c.001 3.321-2.691 6.013-6.012 6.013z"/></g><g fill="#7a8c98"><path d="m482.326 475.881v28.47c0 3.325-2.697 6.011-6.011 6.011h-16.746c3.314 0 6.011-2.686 6.011-6.011v-28.47z"/><path d="m64.155 475.881v28.47c0 3.325-2.686 6.011-6.011 6.011h-16.746c3.314 0 6.011-2.686 6.011-6.011v-28.47z"/></g><path d="m508.201 475.879h-504.402c-2.098 0-3.799-1.701-3.799-3.799v-22.412c0-2.098 1.701-3.799 3.799-3.799h504.402c2.098 0 3.799 1.701 3.799 3.799v22.412c0 2.098-1.701 3.799-3.799 3.799z" fill="#8d9ca8"/><path d="m511.999 449.665v22.417c0 2.1-1.698 3.798-3.798 3.798h-20.585c2.1 0 3.798-1.698 3.798-3.798v-22.417c0-2.1-1.698-3.798-3.798-3.798h20.585c2.1 0 3.798 1.699 3.798 3.798z" fill="#7a8c98"/></g></svg>