<svg id="Layer_35" enable-background="new 0 0 64 64" height="512" viewBox="0 0 64 64" width="512" xmlns="http://www.w3.org/2000/svg" xmlns:xlink="http://www.w3.org/1999/xlink"><linearGradient id="SVGID_1_" gradientUnits="userSpaceOnUse" x1="32" x2="32" y1="63" y2="1"><stop offset="0" stop-color="#9f2fff"/><stop offset="1" stop-color="#0bb1d3"/></linearGradient><path d="m52 57h2v2h-2zm-4 2h2v-2h-2zm-2-2h-2v2h2zm8-4h-10v2h10zm6-46v2c1.654 0 3 1.346 3 3s-1.346 3-3 3v2c1.654 0 3 1.346 3 3s-1.346 3-3 3h-16c-1.654 0-3-1.346-3-3s1.346-3 3-3v-2c-1.302 0-2.402-.839-2.816-2h-1.184c-1.654 0-3 1.346-3 3v21h2v-3c0-2.757 2.243-5 5-5h1.101c.465-2.279 2.484-4 4.899-4 2.757 0 5 2.243 5 5s-2.243 5-5 5c-2.414 0-4.434-1.721-4.899-4h-1.101c-1.654 0-3 1.346-3 3v3h16.618l5 10h-4.618v16h-52v-16h-4.618l5-10h20.618v-5c0-1.654-1.346-3-3-3h-3v4h-13c-2.757 0-5-2.243-5-5s2.243-5 5-5h8c2.414 0 4.434 1.721 4.899 4h3.101c2.757 0 5 2.243 5 5v5h2v-21c0-1.654-1.346-3-3-3h-1v5c0 1.654-1.346 3-3 3h-20c-1.654 0-3-1.346-3-3v-14c0-1.654 1.346-3 3-3h20c1.654 0 3 1.346 3 3v7h1c2.757 0 5 2.243 5 5v21h2v-21c0-2.757 2.243-5 5-5h1.184c.414-1.161 1.514-2 2.816-2v-2c-1.654 0-3-1.346-3-3s1.346-3 3-3h16c1.654 0 3 1.346 3 3s-1.346 3-3 3zm-35-3c0-.552-.448-1-1-1h-20c-.552 0-1 .448-1 1v14c0 .552.448 1 1 1h20c.552 0 1-.448 1-1zm-6 24c0-1.654-1.346-3-3-3h-8c-1.654 0-3 1.346-3 3s1.346 3 3 3h11zm28 2c0 1.654 1.346 3 3 3s3-1.346 3-3-1.346-3-3-3-3 1.346-3 3zm-42.382 15h14.764l3-6h-14.764zm3.382 16h16v-20.764l-3.382 6.764h-12.618zm48-14h-26.618l-3.382-6.764v20.764h30zm.382-8h-28.764l3 6h28.764zm-12.382-34h16c.552 0 1-.448 1-1s-.448-1-1-1h-16c-.552 0-1 .448-1 1s.448 1 1 1zm16 14h-16c-.552 0-1 .448-1 1s.448 1 1 1h16c.552 0 1-.448 1-1s-.448-1-1-1zm-2-4h-12v2h12zm2-4h-16c-.552 0-1 .448-1 1s.448 1 1 1h16c.552 0 1-.448 1-1s-.448-1-1-1zm-2-4h-12v2h12zm-41-2h6v12h-18v-6h4v-2h4v-2h4zm-6 6v4h2v-4zm-4 4h2v-2h-2zm10 0v-6h-2v6zm2 0h2v-8h-2zm-12 14h2v-2h-2zm4 0h2v-2h-2zm4 0h2v-2h-2zm40 12h-2v2h2zm-4 0h-2v2h2zm-4 0h-2v2h2zm-37 10h2v-2h-2zm0 4h2v-2h-2zm0 4h2v-2h-2z" fill="url(#SVGID_1_)"/></svg>