<?xml version="1.0"?>
<svg xmlns="http://www.w3.org/2000/svg" xmlns:xlink="http://www.w3.org/1999/xlink" xmlns:svgjs="http://svgjs.com/svgjs" version="1.1" width="512" height="512" x="0" y="0" viewBox="0 0 512 512" style="enable-background:new 0 0 512 512" xml:space="preserve" class=""><g><title xmlns="http://www.w3.org/2000/svg">Release</title><path xmlns="http://www.w3.org/2000/svg" d="M472,97.257A6.084,6.084,0,0,0,466.169,91H341V78h49.031c3.314,0,5.969-2.227,5.969-5.541V40.712A33.744,33.744,0,0,0,362.359,7H162.825a32.2,32.2,0,0,0-32.407,31.959L130.135,91H45.83A6.083,6.083,0,0,0,40,97.257V432.675c0,3.314,2.516,6.325,5.83,6.325H192.367l-15.209,54H150.567a6,6,0,0,0,0,12H361.433a6,6,0,0,0,0-12H334.842l-15.209-54H466.169c3.313,0,5.831-3.011,5.831-6.325V369.026h0v-12h0ZM279.238,255.2a55.833,55.833,0,1,1,55.833,55.833A55.9,55.9,0,0,1,279.238,255.2ZM362.307,19h.042A21.759,21.759,0,0,1,384,40.813V66H341V40.8c0-11.955,9.266-21.8,21.211-21.8ZM142.418,39.12A20.3,20.3,0,0,1,162.825,19H336.49C331.358,25,329,32.777,329,40.813V187.684a59.821,59.821,0,0,0-15.053,3.154A6.464,6.464,0,0,0,309.4,189H160.268a6,6,0,0,0,0,12h134.1a74.009,74.009,0,0,0-13.248,13H160.268a6,6,0,0,0,0,12H273.79a76.676,76.676,0,0,0-4.655,13H160.268a6,6,0,0,0,0,12H267.357c-.073,2-.119,2.738-.119,4.043A67.968,67.968,0,0,0,270.88,277c-48.622,0-110.448.01-129.751.007ZM52,103h78.07L129.1,282.908a6.151,6.151,0,0,0,1.746,4.328,6.031,6.031,0,0,0,4.253,1.8s82.369.027,141.248.027a67.865,67.865,0,0,0,58.728,33.96c37.4,0,68.045-30.426,68.045-67.829,0-35.549-28.116-64.773-62.116-67.587V103H460V357H52ZM322.378,493H189.622l15.208-54H307.17ZM460,427H52V369H460Z" fill="#00578a" data-original="#000000" style="" class=""/><path xmlns="http://www.w3.org/2000/svg" d="M234.246,149.854A55.543,55.543,0,1,0,178.7,94.312,55.6,55.6,0,0,0,234.246,149.854Zm0-99.085A43.543,43.543,0,1,1,190.7,94.312,43.592,43.592,0,0,1,234.246,50.769Z" fill="#00578a" data-original="#000000" style="" class=""/><path xmlns="http://www.w3.org/2000/svg" d="M234.246,113.02a5.618,5.618,0,0,1-5.612-5.612,6,6,0,1,0-12,0A17.624,17.624,0,0,0,227,123.442V126a6,6,0,0,0,12,0v-1.65A17.6,17.6,0,0,0,234.246,89.8a5.612,5.612,0,1,1,5.612-5.612,6,6,0,1,0,12,0A17.629,17.629,0,0,0,240,67.556V65a6,6,0,0,0-12,0v2.737a17.6,17.6,0,0,0,6.246,34.059,5.612,5.612,0,0,1,0,11.224Z" fill="#00578a" data-original="#000000" style="" class=""/><path xmlns="http://www.w3.org/2000/svg" d="M160.268,176H309.4a6,6,0,0,0,0-12H160.268a6,6,0,0,0,0,12Z" fill="#00578a" data-original="#000000" style="" class=""/><path xmlns="http://www.w3.org/2000/svg" d="M324.739,273.224A5.984,5.984,0,0,0,328.988,275H329a5.994,5.994,0,0,0,4.243-1.755l27.612-27.611a6,6,0,1,0-8.485-8.484L329.023,260.5l-11.232-11.343a6,6,0,0,0-8.527,8.442Z" fill="#00578a" data-original="#000000" style="" class=""/></g></svg>
